<svg height="32" viewBox="0 0 106 32" width="106" xmlns="http://www.w3.org/2000/svg"><g fill="#08343e"><path d="m19.1382407 20.0774193c0-.2137876-.1712478-.3870967-.3824927-.3870967s-.3824927.1733091-.3824927.3870967c0 .8123931-.6507417 1.4709679-1.4534722 1.4709679h-2.1164595v-2.1842142c.6324802-.1600173 1.4534722-.5851244 1.4534722-1.0932053 0-.648162-.8645383-1.1612903-1.9124634-1.1612903-1.0479252 0-1.9124635.5131283-1.9124635 1.1612903 0 .5572582.9295167 1.0147031 1.6064693 1.1320541v2.1453654h-2.1164595c-.8027305 0-1.4534722-.6585748-1.4534722-1.4709679 0-.2137876-.1712478-.3870967-.3824927-.3870967-.21124487 0-.38249268.1733091-.38249268.3870967 0 1.1027751.78560758 2.019853 1.82132368 2.2092888.0189703.1462039.0458719.3441316.0807495.5941638.0830282.5952188.2114743 1.4872439.3853815 2.6763972.0641352.4385956.4333554.7652305.8714243.7709144l1.3842074.0179599c.0847335.0010993.1475552-.0015862.195327-.0118765.0328859.0098195.0676064.0152879.1035043.0157538l1.4174128.0184659c.4448088.005696.8259041-.3209201.893546-.765885l.5053883-3.3245655c1.0135017-.2073234 1.7765548-1.1137871 1.7765548-2.2006168zm-2.0423605-13.03814517-1.4252226-1.91271398.192319.99125715-2.1475623-2.24684956.4871925 1.60082859-.0618843.03577013-1.7598526-.97576061.5529253 1.67338489-10.57310861 6.11143486c-.88298914.5103826-1.38194755 1.5029046-1.2697223 2.5257162l.94072608 8.5736996c.09341165.8513461.59814176 1.6003044 1.34720981 1.9990963l9.72726902 5.1786417c.7431649.3956491 1.6311634.3956491 2.3743283 0l9.7272689-5.1786417c.7490682-.3987919 1.2537982-1.1477502 1.3472098-1.9990963l.9407262-8.5736996c.1122253-1.0228116-.3867332-2.0153336-1.2697222-2.5257162zm.6880519-.79105205 8.9479085 5.17204192c1.236185.7145356 1.9347267 2.1040664 1.7776113 3.5360026l-.9407259 8.5736997c-.1307763 1.1918844-.8373986 2.2404262-1.8860939 2.7987347l-9.7272689 5.1786417c-1.0404309.5539087-2.2836288.5539087-3.3240597 0l-9.72726898-5.1786417c-1.04869527-.5583085-1.75531743-1.6068503-1.88609374-2.7987347l-.94072608-8.5736997c-.15711535-1.4319362.54142643-2.821467 1.77761123-3.5360026l9.84613657-5.69123277-1.112972-3.36832196 1.9254316 1.06756687-1.0267823-3.37382608 2.7107329 2.83605703-.3818311-1.9680467zm-10.75795977 8.69030502c0 .4382227.16999676.8180158.45332467 1.1101643.28332792.2921485.65165421.4674376 1.07664606.4674376.16999676 0 .31166072-.0292148.45332467-.0584297.62332141-.2045039 1.07664607-.788801 1.07664607-1.4899574 0-.8472306-.67998699-1.5483871-1.50163794-1.5483871-.36832629 0-.70831979.1460743-.9633149.3505783-.39665909.2337188-.59498863.6719415-.59498863 1.168594zm11.21978537 0c0 .4382227.1699968.8180158.4533247 1.1101643s.6516542.4674376 1.0766461.4674376c.1699967 0 .3116607-.0292148.4533246-.0584297.6233214-.2045039 1.0766461-.788801 1.0766461-1.4899574 0-.8472306-.679987-1.5483871-1.5016379-1.5483871-.3683263 0-.7083198.1460743-.963315.3505783-.396659.2337188-.5949886.6719415-.5949886 1.168594zm8.6953337-4.6675594s.2039962-.41290319 0-.87741931c-.3314935-.74838711-.9179825-2.09032258-1.5044712-2.4516129-.6374878-.36129033-2.345955-.23225807-3.1364399-.15483872-.0509991 0-.4844909.10322581-.5609895.25806451-.050999.12903228-.5864887 1.03225807-.5864887 1.03225807l.5099904.28387098 4.7939082 2.76129037zm-6.1331721-3.64904281.0189733-.03840344c.2672951-.54102507.9368075-.80434468 1.4077273-.82706906 1.7104822-.16592881 2.9212662-.15671598 3.7003661.28483173l.0319699.01889802c.540911.33321338.9567141.9397718 1.4136274 1.85089662.1588763.31681323.2603244.53887653.4925781 1.06322991.2227379.50719294.2227379 1.01090929.092176 1.46236583-.0351748.1216266-.074748.220638-.1119477.2959331l-.0134046.0271318-1.0058535 1.7680376-.8820589-.5080657-4.780928-2.75394004-1.4379434-.80038856.5448748-.91905575c.0178475-.03010393.049509-.08369898.0903347-.15313478.0680292-.11570302.1360212-.23210726.1992221-.34137515.0055351-.00957156.0055351-.00957156.011063-.01913885.0690543-.11954106.1273201-.22187486.170964-.30053231.0225649-.04066787.0404427-.07361731.0525795-.09682633.0015622-.00298737.001577-.00301397-.0095054.02502562zm-13.34845526 1.40388155c-.10199806-.18064516-.50999025-.87741935-.56098927-.98064516-.07649854-.18064514-.50999025-.25806451-.56098927-.25806451-.81598438-.07741935-2.49895221-.20645161-3.13644.15483872-.58648879.33548386-1.17297757 1.70322579-1.50447123 2.4516129-.2039961.46451612 0 .87741931 0 .87741931l.48449073.8258065zm.35528278-1.43483432c.02137346.03904785.11829139.20882613.25088262.43817553l.00259522.00448892c.02543985.04400153.13435074.23218041.16032715.27712748.05674197.09818089.09283567.16098206.11650329.20289899l.50473933.89392608-7.0322995 4.09138538-1.01675311-1.7330388-.01646584-.0333281c-.03719977-.0752951-.07677295-.1743065-.11194761-.2959331-.13056202-.45145654-.13056202-.95517289.09350419-1.46537737.27144866-.61282824.33159493-.7455306.48640403-1.05733717.46643289-.93945929.88397583-1.54865406 1.450443-1.87267584.77840587-.44115435 1.93572156-.45048049 3.6919196-.28553481.50538987.01601916 1.1428025.24525775 1.42014763.83522281zm4.54822208 16.18167898c-.0245813-.1762202-.0451279-.3260557-.0616238-.4493694.4157412.0012337.9560141.004134 1.7301438.0089997-.0380741 1.1625841-.0703588 2.0440548-.0968296 2.6439437-.0107838.2443833-.020587.4416322-.0293669.5912339l-1.0331856-.0134055c-.0625818-.0008119-.1153263-.047473-.1244883-.110128-.173679-1.1875929-.3019097-2.078123-.3846496-2.6712744zm2.5572932 2.807977-.107638-3.2433362c.9142073.0058757 1.4130398.0088559 1.7645202.0101848l-.4769366 3.1374033c-.0096631.0635665-.0641053.1102259-.1276494.1094121z"/><path d="m50.4928 21.568c-.5376028.7296036-1.2351957 1.3215977-2.0928 1.776s-1.887994.6816-3.0912.6816c-1.0368051 0-1.9935955-.1759983-2.8704-.528s-1.6319968-.8447968-2.2656-1.4784-1.1295983-1.3887956-1.488-2.2656-.5376-1.8399948-.5376-2.8896c0-1.0624053.1823981-2.0319956.5472-2.9088s.8703968-1.6255969 1.5168-2.2464 1.4111955-1.1039983 2.2944-1.4496c.8832045-.34560173 1.8431949-.5184 2.88-.5184.4608023 0 .9279977.04479955 1.4016.1344s.9279979.2239991 1.3632.4032.8319983.3999987 1.1904.6624.6655987.5663983.9216.912l-1.4976 1.152c-.3328017-.4608023-.803197-.8415985-1.4112-1.1424s-1.2639964-.4512-1.968-.4512c-.7936041 0-1.5071968.1439986-2.1408.432s-1.1743979.6815975-1.6224 1.1808c-.4480023.4992025-.7935987 1.0783967-1.0368 1.7376s-.3648 1.3599963-.3648 2.1024c0 .7680038.1183987 1.4847967.3552 2.1504s.5759979 1.2447975 1.0176 1.7376.9791968.8799985 1.6128 1.1616 1.3407962.4224 2.1216.4224c.7680038 0 1.4655968-.1535985 2.0928-.4608s1.1455979-.7551971 1.5552-1.344zm1.8432-5.0304c0-.2432012-.0064-.5567981-.0192-.9408s-.0319998-.7231985-.0576-1.0176h1.7088c.0256002.2304012.0448.4959985.0576.7968s.0192.547199.0192.7392h.0576c.2560013-.5376027.6303974-.9695984 1.1232-1.296s1.046397-.4896 1.6608-.4896c.2816015 0 .5183989.0255997.7104.0768l-.0768 1.6704c-.2560013-.0640003-.5311985-.096-.8256-.096-.4352 0-.8127985.0799992-1.1328.24s-.5855989.3743987-.7968.6432-.3679996.5791983-.4704.9312c-.1024004.3520018-.1536.7199981-.1536 1.104v4.7808h-1.8048zm8.7744 7.1424h-1.8048v-9.1008h1.8048zm.3072-12.384c0 .3328017-.1183987.6079989-.3552.8256s-.5215983.3264-.8544.3264-.6143989-.1119989-.8448-.336-.3456-.4959984-.3456-.816c0-.3328017.1151989-.6111989.3456-.8352s.5119983-.336.8448-.336.6175987.1119989.8544.336.3552.5023983.3552.8352zm12.0576 7.8144c0 .7040035-.1247987 1.3503971-.3744 1.9392-.2496013.588803-.5951979 1.0975979-1.0368 1.5264s-.963197.7615987-1.5648.9984-1.2479966.3552-1.9392.3552-1.337597-.1183987-1.9392-.3552-1.1199979-.5695979-1.5552-.9984-.7775987-.937597-1.0272-1.5264c-.2496013-.5888029-.3744-1.2351965-.3744-1.9392s.1247987-1.3471971.3744-1.9296.5919979-1.0847979 1.0272-1.5072.953597-.7519988 1.5552-.9888 1.2479966-.3552 1.9392-.3552 1.337597.1183988 1.9392.3552 1.1231979.5663979 1.5648.9888.7871987.9247971 1.0368 1.5072.3744 1.2255965.3744 1.9296zm-1.8816 0c0-.4352022-.0672-.851198-.2016-1.248-.1344006-.396802-.3295987-.7455985-.5856-1.0464s-.5727981-.5407991-.9504-.72-.8095977-.2688-1.296-.2688-.9183981.0895991-1.296.2688-.6943987.4191985-.9504.72-.4511994.649598-.5856 1.0464-.2016.8127978-.2016 1.248.0671994.851198.2016 1.248.3295987.7487985.5856 1.056.5727981.5503991.9504.7296.8095977.2688 1.296.2688.9183981-.0895991 1.296-.2688.6943987-.4223985.9504-.7296.4511994-.659198.5856-1.056c.1344-.396802.2016-.8127978.2016-1.248zm6.3744 3.4176c0 .3328017-.1215987.6271987-.3648.8832s-.5503981.384-.9216.384c-.3584017 0-.6623987-.1247987-.912-.3744s-.3744-.5408-.3744-.8736c0-.3456017.1215987-.6431987.3648-.8928s.5503981-.3744.9216-.3744.6783987.1215987.9216.3648.3648.5375983.3648.8832zm15.3024-5.6832c0 1.190406-.2207979 2.2175957-.6624 3.0816s-1.0239964 1.5743972-1.7472 2.1312-1.5391955.9663987-2.448 1.2288-1.8303953.3936-2.7648.3936h-5.0688v-13.5936h4.9152c.9600047 0 1.9071953.1119989 2.8416.336s1.7663964.5951974 2.496 1.1136 1.3183979 1.2127956 1.7664 2.0832c.4480023.8704044.672 1.9455936.672 3.2256zm-3.4176 0c0-.7680038-.1247987-1.4047975-.3744-1.9104s-.5823979-.9087985-.9984-1.2096-.8895974-.5151994-1.4208-.6432-1.0783972-.192-1.6416-.192h-1.632v7.9488h1.5552c.588803 0 1.1551972-.0671993 1.6992-.2016s1.0239979-.3551985 1.44-.6624.7487987-.7167974.9984-1.2288.3744-1.1455962.3744-1.9008zm15.552 2.016c0 .7808039-.140799 1.4879968-.4224 2.1216s-.665598 1.1711979-1.152 1.6128-1.049597.7839987-1.6896 1.0272-1.324796.3648-2.0544.3648c-.7168036 0-1.3983968-.1215987-2.0448-.3648s-1.2095977-.5855979-1.6896-1.0272-.8607985-.9791968-1.1424-1.6128-.4224-1.3407961-.4224-2.1216.1407985-1.4847969.4224-2.112.6623977-1.1583978 1.1424-1.5936 1.0431968-.7679988 1.6896-.9984 1.3279964-.3456 2.0448-.3456c.729604 0 1.414397.1151988 2.0544.3456s1.203198.5631978 1.6896.9984.870399.9663969 1.152 1.5936.4224 1.3311961.4224 2.112zm-3.0336 0c0-.3072015-.0512-.6079985-.1536-.9024s-.249599-.5535989-.4416-.7776-.428799-.4063993-.7104-.5472-.607998-.2112-.9792-.2112c-.3712019 0-.6975985.0703993-.9792.2112s-.5151991.3231989-.7008.5472-.3263996.4831985-.4224.7776-.144.5951985-.144.9024.0479996.6079985.144.9024.2399991.5599988.432.7968c.1920011.2368012.4287985.4255993.7104.5664s.6079981.2112.9792.2112c.371202 0 .697599-.0703993.9792-.2112s.518399-.3295988.7104-.5664.336-.5023985.432-.7968.144-.5951985.144-.9024z"/></g></svg>